<svg data-v-fde0c5aa="" xmlns="http://www.w3.org/2000/svg" viewBox="0 0 300 300" class="iconLeft"><!----><defs data-v-fde0c5aa=""><!----></defs><rect data-v-fde0c5aa="" fill="transparent" x="0" y="0" width="300px" height="300px" class="logo-background-square"></rect><defs data-v-fde0c5aa=""><!----></defs><g data-v-fde0c5aa="" id="fefe89c7-69e1-44c6-9293-3663f2ede4d9" fill="#000000" transform="matrix(1.1415024836023095,0,0,1.1415024836023095,110.65722309836889,142.22066091716604)"><path d="M4.39 12.74C6.41 12.74 8.14 11.57 8.14 9.56C8.14 5.57 3.38 6.56 3.38 4.97C3.38 4.52 3.73 4.31 4.15 4.31C4.67 4.31 5.25 4.62 5.81 5.22L7.56 3.52C6.74 2.55 5.50 1.96 4.18 1.96C2.52 1.96 0.68 2.92 0.68 5.16C0.68 8.80 5.46 7.93 5.46 9.52C5.46 9.94 5.11 10.24 4.43 10.24C3.52 10.24 2.78 9.75 2.42 8.96L0.23 10.33C0.93 11.66 2.47 12.74 4.39 12.74ZM17.97 5.60L16.98 9.91L15.61 5.60L13.65 5.60L12.30 9.87L11.31 5.60L8.37 5.60L10.78 12.60L13.49 12.60L14.63 9.15L15.77 12.60L18.48 12.60L20.88 5.60ZM22.98 4.46C23.73 4.46 24.36 3.83 24.36 3.08C24.36 2.33 23.73 1.71 22.98 1.71C22.23 1.71 21.60 2.33 21.60 3.08C21.60 3.83 22.23 4.46 22.98 4.46ZM21.68 12.60L24.27 12.60L24.27 5.60L21.68 5.60ZM30.71 5.60L29.12 5.60L29.12 4.04C29.12 3.48 29.38 3.13 29.82 3.13L30.68 3.13L30.68 1.12C30.50 1.00 30.01 0.89 29.49 0.89C27.88 0.89 26.51 2.13 26.51 3.75L26.51 5.60L25.34 5.60L25.34 7.53L26.51 7.53L26.51 12.60L29.12 12.60L29.12 7.53L30.71 7.53ZM36.17 7.53L36.17 5.60L34.56 5.60L34.56 3.03L31.97 3.03L31.97 5.60L30.80 5.60L30.80 7.53L31.97 7.53L31.97 9.91C31.97 11.50 33.34 12.74 34.95 12.74C35.46 12.74 35.96 12.64 36.14 12.51L36.14 10.50L35.28 10.50C34.84 10.50 34.56 10.15 34.56 9.59L34.56 7.53ZM37.40 12.60L41.04 12.60C43.93 12.60 46.29 10.26 46.29 7.35C46.29 4.45 43.93 2.10 41.04 2.10L37.40 2.10ZM40.08 10.27L40.08 4.43L41.04 4.43C42.49 4.43 43.63 5.71 43.63 7.35C43.63 9.00 42.49 10.27 41.04 10.27ZM52.29 5.46C51.52 5.46 50.87 5.88 50.44 6.58L50.44 5.60L47.85 5.60L47.85 12.60L50.44 12.60L50.44 9.38C50.44 8.28 51.15 7.72 52.19 7.72C52.47 7.72 52.71 7.75 52.89 7.79L52.89 5.55C52.73 5.50 52.50 5.46 52.29 5.46ZM55.06 4.46C55.81 4.46 56.44 3.83 56.44 3.08C56.44 2.33 55.81 1.71 55.06 1.71C54.30 1.71 53.67 2.33 53.67 3.08C53.67 3.83 54.30 4.46 55.06 4.46ZM53.76 12.60L56.35 12.60L56.35 5.60L53.76 5.60ZM62.46 5.60L61.20 9.78L59.94 5.60L57.17 5.60L59.97 12.60L62.41 12.60L65.24 5.60ZM69.48 5.44C67.13 5.44 65.56 6.84 65.56 9.10C65.56 11.34 67.11 12.74 69.55 12.74C71.59 12.74 72.87 11.73 73.19 10.20L70.72 10.20C70.60 10.66 70.19 10.92 69.53 10.92C68.60 10.92 68.23 10.43 68.16 9.52L73.27 9.52L73.27 9.08C73.29 6.84 71.80 5.44 69.48 5.44ZM69.53 7.35C70.16 7.35 70.51 7.61 70.67 8.09L68.30 8.09C68.48 7.61 68.85 7.35 69.53 7.35ZM84.75 8.44C85.96 8.02 86.80 6.84 86.80 5.41C86.80 3.59 85.45 2.10 83.58 2.10L78.91 2.10L78.91 12.60L81.59 12.60L81.59 8.75L82.20 8.75L84.65 12.60L87.66 12.60ZM83.14 6.60L81.59 6.60L81.59 4.43L83.14 4.43C83.77 4.43 84.23 4.88 84.23 5.51C84.23 6.14 83.77 6.60 83.14 6.60ZM91.89 5.44C89.55 5.44 87.97 6.84 87.97 9.10C87.97 11.34 89.53 12.74 91.96 12.74C94.01 12.74 95.29 11.73 95.60 10.20L93.14 10.20C93.01 10.66 92.61 10.92 91.95 10.92C91.02 10.92 90.65 10.43 90.58 9.52L95.69 9.52L95.69 9.08C95.71 6.84 94.22 5.44 91.89 5.44ZM91.95 7.35C92.58 7.35 92.93 7.61 93.08 8.09L90.72 8.09C90.90 7.61 91.26 7.35 91.95 7.35ZM101.83 5.46C100.98 5.46 100.22 5.90 99.72 6.60L99.72 5.60L97.13 5.60L97.13 12.60L99.72 12.60L99.72 8.68C99.72 8.12 100.19 7.72 100.77 7.72C101.34 7.72 101.73 8.12 101.73 8.68L101.73 12.60L104.32 12.60L104.32 8.17C104.32 6.62 103.23 5.46 101.83 5.46ZM110.60 7.53L110.60 5.60L108.99 5.60L108.99 3.03L106.40 3.03L106.40 5.60L105.23 5.60L105.23 7.53L106.40 7.53L106.40 9.91C106.40 11.50 107.77 12.74 109.38 12.74C109.88 12.74 110.39 12.64 110.57 12.51L110.57 10.50L109.71 10.50C109.27 10.50 108.99 10.15 108.99 9.59L108.99 7.53ZM119.74 10.50C119.46 10.50 119.14 10.45 119.14 9.89L119.14 5.60L116.55 5.60L116.55 6.11C116.08 5.71 115.47 5.46 114.73 5.46C112.82 5.46 111.34 7.05 111.34 9.10C111.34 11.15 112.82 12.74 114.73 12.74C115.75 12.74 116.53 12.29 117.04 11.53C117.55 12.27 118.39 12.74 119.39 12.74C119.61 12.74 119.82 12.67 119.98 12.60L119.98 10.50ZM115.33 10.48C114.54 10.48 113.93 9.89 113.93 9.10C113.93 8.31 114.54 7.72 115.33 7.72C116.08 7.72 116.71 8.31 116.71 9.10C116.71 9.22 116.69 9.35 116.66 9.45L116.59 9.66C116.38 10.15 115.89 10.48 115.33 10.48ZM121.24 12.60L123.83 12.60L123.83 0.89L121.24 0.89ZM128.17 12.74C129.87 12.74 130.83 11.73 130.83 10.40C130.83 8.94 129.61 8.37 128.59 7.96C128.21 7.81 128.01 7.74 128.01 7.58C128.01 7.46 128.12 7.32 128.45 7.32C128.91 7.32 129.33 7.58 129.57 7.81L130.71 6.32C130.10 5.81 129.26 5.46 128.26 5.46C126.47 5.46 125.48 6.62 125.48 7.79C125.48 9.28 127.10 9.71 127.73 9.96C128.31 10.17 128.45 10.33 128.45 10.48C128.45 10.66 128.28 10.76 127.98 10.76C127.72 10.76 127.26 10.69 126.88 10.08L125.06 11.03C125.51 12.18 126.89 12.74 128.17 12.74Z"></path></g><defs data-v-fde0c5aa=""><linearGradient data-v-fde0c5aa="" gradientTransform="rotate(25)" id="8dea7a7b-551f-409b-a98c-5af6bcfcea08" x1="0%" y1="0%" x2="100%" y2="0%"><stop data-v-fde0c5aa="" offset="0%" stop-color="#421E56" stop-opacity="1"></stop><stop data-v-fde0c5aa="" offset="100%" stop-color="#BC6083" stop-opacity="1"></stop></linearGradient></defs><g data-v-fde0c5aa="" id="c47b0d5b-fd53-4e6d-9d6f-935cb3599fee" stroke="none" fill="url(#8dea7a7b-551f-409b-a98c-5af6bcfcea08)" transform="matrix(0.7414896208960327,0,0,0.7414896208960327,32.731087812995774,108.89259711793147)"><path d="M87.82 52.572c-.331-.132.066-.862 0-1.725-.066-.862-.465-1.062-1.658-1.193-1.193-.133-5.703-1.327-6.433-1.459-.73-.132-4.931-2.309-8.556-4.51-1.941-1.177-4.511-1.061-6.367-1.326-1.857-.265-5.969-.531-12.336-.597-6.368-.066-9.707.526-10.418.709-1.699.438-5.45 5.483-7.954 5.989-3.95.798-23.189 2.489-23.486 2.847-.621.752-.78 3.819-.796 4.482-.02.808-.087 2.46.498 2.91.754.58 1.368.682 1.368.682.444.083 2.908.594 5.699 1.174.488 2.965 2.785 5.21 5.549 5.21 2.022 0 3.792-1.205 4.79-3.01.139.038.267.072.377.098.52.12.995-.63 1.194.132.132.507 2.132.482 2.487.497.698.029 2.454-.098 3.316-.014.862.085 3.051-.217 3.449-.748.398-.53 1.187-2.305 1.494-2.917.306-.609 2.064-2.483 2.711-2.911 1.153-.764 2.228-.538 2.825-.443.608.099 3.051 1.065 3.35 3.586.218 1.844.342 3.414.342 3.414s8.776-1.259 14.547-1.989c5.771-.729 7.693-.729 7.693-.729s.075-.072.202-.205c.539-.56 1.749-2.024 2.61-3.666 1.06-2.017.496-.991.951-1.783.345-.598.533-.771.974-.949.565-.229 2.164-.066 2.989 1.587.462.928.829 2.662 1.294 2.495.533-.19 4.907-1.789 5.504-2.661.598-.871.598.009 1.062-.786.464-.798 1.06-2.059.729-2.191zm-34.215-2.727l-17.642-1.724s6.046-4.998 6.337-5.169c.286-.168 14.32.451 14.225.725-.181.504-1.526 3.184-2.123 4.444-.597 1.259-.797 1.724-.797 1.724zm18.911-1.443s-1.144.125-1.642.224c-.497.099-3.431.547-4.128.696s-2.984.298-3.481.349c-.498.05-4.304.249-4.304.249s-4.551.149-4.451 0c.1-.15 2.885-6.118 2.885-6.118h8.357s.386.226 1.392.796c1.093.618 4.278 2.263 5.174 2.81.895.546.198.994.198.994z"></path><path d="M11.463 52.491l20.165 2.82-.169 4.069s-20.19-3.259-20.202-3.427c-.065-.976.206-3.462.206-3.462z"></path><path d="M20.759 55.721c-.053.764-1.355 1.185-2.894.936l-3.604-.585c-1.539-.249-2.75-1.077-2.692-1.841.059-.763 1.366-1.183 2.905-.934l3.581.581c1.54.249 2.756 1.078 2.704 1.843zM31.111 57.242c0 .89-1.259 1.413-2.798 1.164l-4.223-.686c-1.539-.249-2.75-1.101-2.691-1.893.059-.792 1.373-1.276 2.919-1.077l3.982.512c1.546.2 2.811 1.091 2.811 1.98zM43.106 56.354c-3.12 0-5.649 2.856-5.649 6.383 0 3.525 2.529 6.384 5.649 6.384s5.649-2.858 5.649-6.384c0-3.527-2.529-6.383-5.649-6.383zm1.539 10.213c-1.429 0-2.587-1.663-2.587-3.715 0-2.051 1.158-3.714 2.587-3.714 1.428 0 2.586 1.663 2.586 3.714-.001 2.052-1.158 3.715-2.586 3.715zM75.117 54.478c-2.602 0-4.71 2.142-4.71 4.784s2.108 4.784 4.71 4.784 4.711-2.143 4.711-4.784c0-2.643-2.109-4.784-4.711-4.784zm1.893 7.844c-1.135 0-2.056-1.419-2.056-3.17 0-1.75.921-3.168 2.056-3.168 1.136 0 2.056 1.418 2.056 3.168-.001 1.751-.92 3.17-2.056 3.17z"></path></g><!----></svg>